<mxfile host="app.diagrams.net" modified="2021-12-08T18:07:50.643Z" agent="5.0 (Windows NT 10.0; Win64; x64) AppleWebKit/537.36 (KHTML, like Gecko) Chrome/96.0.4664.93 Safari/537.36" etag="RAoXOKtBN_CPU494zJzk" version="15.8.7" type="github">
  <diagram id="c9srMotP2O3hKFXso8sS" name="Page-1">
    <mxGraphModel dx="2290" dy="651" grid="1" gridSize="10" guides="1" tooltips="1" connect="1" arrows="1" fold="1" page="1" pageScale="1" pageWidth="850" pageHeight="1100" math="0" shadow="0">
      <root>
        <mxCell id="0" />
        <mxCell id="1" parent="0" />
        <mxCell id="m60h9jhjNlDXzHuw5Jvv-9" value="" style="rounded=0;whiteSpace=wrap;html=1;fontSize=14;" parent="1" vertex="1">
          <mxGeometry x="-810" y="30" width="920" height="460" as="geometry" />
        </mxCell>
        <mxCell id="m60h9jhjNlDXzHuw5Jvv-10" value="" style="rounded=0;whiteSpace=wrap;html=1;fillColor=#dae8fc;strokeColor=#6c8ebf;" parent="1" vertex="1">
          <mxGeometry x="-721" y="110" width="731" height="300" as="geometry" />
        </mxCell>
        <mxCell id="m60h9jhjNlDXzHuw5Jvv-11" value="Human Machine Interface Layer" style="text;html=1;strokeColor=none;fillColor=none;align=center;verticalAlign=middle;whiteSpace=wrap;rounded=0;fontSize=27;" parent="1" vertex="1">
          <mxGeometry x="-700" y="140" width="300" height="60" as="geometry" />
        </mxCell>
        <mxCell id="m60h9jhjNlDXzHuw5Jvv-12" value="LED Strip" style="rounded=0;whiteSpace=wrap;html=1;fontSize=18;fillColor=#FFFFFF;strokeColor=#d79b00;" parent="1" vertex="1">
          <mxGeometry x="-280" y="230" width="230" height="50" as="geometry" />
        </mxCell>
        <mxCell id="m60h9jhjNlDXzHuw5Jvv-41" style="edgeStyle=orthogonalEdgeStyle;rounded=0;orthogonalLoop=1;jettySize=auto;html=1;exitX=1;exitY=0.5;exitDx=0;exitDy=0;" parent="1" source="m60h9jhjNlDXzHuw5Jvv-13" edge="1">
          <mxGeometry relative="1" as="geometry">
            <mxPoint x="-390" y="70" as="targetPoint" />
            <Array as="points">
              <mxPoint x="-390" y="255" />
            </Array>
          </mxGeometry>
        </mxCell>
        <mxCell id="m60h9jhjNlDXzHuw5Jvv-13" value="Weight Sensor" style="rounded=0;whiteSpace=wrap;html=1;fontSize=18;fillColor=#FFFFFF;strokeColor=#d79b00;" parent="1" vertex="1">
          <mxGeometry x="-636" y="230" width="230" height="50" as="geometry" />
        </mxCell>
        <mxCell id="m60h9jhjNlDXzHuw5Jvv-37" value="&lt;div&gt;Buzzer/Speaker&lt;/div&gt;" style="rounded=0;whiteSpace=wrap;html=1;fontSize=18;fillColor=#FFFFFF;strokeColor=#d79b00;" parent="1" vertex="1">
          <mxGeometry x="-280" y="323" width="230" height="50" as="geometry" />
        </mxCell>
        <mxCell id="m60h9jhjNlDXzHuw5Jvv-57" style="edgeStyle=orthogonalEdgeStyle;rounded=0;orthogonalLoop=1;jettySize=auto;html=1;entryX=0.5;entryY=1;entryDx=0;entryDy=0;" parent="1" source="m60h9jhjNlDXzHuw5Jvv-38" edge="1">
          <mxGeometry relative="1" as="geometry">
            <mxPoint x="-690" y="80" as="targetPoint" />
            <Array as="points">
              <mxPoint x="-690" y="348" />
            </Array>
          </mxGeometry>
        </mxCell>
        <mxCell id="m60h9jhjNlDXzHuw5Jvv-38" value="Follow Anklet" style="rounded=0;whiteSpace=wrap;html=1;fontSize=18;fillColor=#FFFFFF;strokeColor=#d79b00;" parent="1" vertex="1">
          <mxGeometry x="-636" y="323" width="230" height="50" as="geometry" />
        </mxCell>
        <mxCell id="m60h9jhjNlDXzHuw5Jvv-45" style="edgeStyle=orthogonalEdgeStyle;rounded=0;orthogonalLoop=1;jettySize=auto;html=1;entryX=0;entryY=0.5;entryDx=0;entryDy=0;" parent="1" target="m60h9jhjNlDXzHuw5Jvv-12" edge="1">
          <mxGeometry relative="1" as="geometry">
            <mxPoint x="-300" y="70" as="sourcePoint" />
            <Array as="points">
              <mxPoint x="-300" y="255" />
            </Array>
          </mxGeometry>
        </mxCell>
        <mxCell id="m60h9jhjNlDXzHuw5Jvv-46" style="edgeStyle=orthogonalEdgeStyle;rounded=0;orthogonalLoop=1;jettySize=auto;html=1;entryX=0;entryY=0.5;entryDx=0;entryDy=0;" parent="1" target="m60h9jhjNlDXzHuw5Jvv-37" edge="1">
          <mxGeometry relative="1" as="geometry">
            <mxPoint x="-300" y="70" as="sourcePoint" />
            <Array as="points">
              <mxPoint x="-300" y="348" />
            </Array>
          </mxGeometry>
        </mxCell>
        <mxCell id="m60h9jhjNlDXzHuw5Jvv-52" style="edgeStyle=orthogonalEdgeStyle;rounded=0;orthogonalLoop=1;jettySize=auto;html=1;" parent="1" edge="1">
          <mxGeometry relative="1" as="geometry">
            <mxPoint x="-780" y="300" as="sourcePoint" />
            <mxPoint x="-528" y="280" as="targetPoint" />
          </mxGeometry>
        </mxCell>
        <mxCell id="m60h9jhjNlDXzHuw5Jvv-53" style="edgeStyle=orthogonalEdgeStyle;rounded=0;orthogonalLoop=1;jettySize=auto;html=1;entryX=0.5;entryY=1;entryDx=0;entryDy=0;" parent="1" target="m60h9jhjNlDXzHuw5Jvv-12" edge="1">
          <mxGeometry relative="1" as="geometry">
            <mxPoint x="-780" y="300" as="sourcePoint" />
          </mxGeometry>
        </mxCell>
        <mxCell id="m60h9jhjNlDXzHuw5Jvv-54" style="edgeStyle=orthogonalEdgeStyle;rounded=0;orthogonalLoop=1;jettySize=auto;html=1;" parent="1" target="m60h9jhjNlDXzHuw5Jvv-37" edge="1">
          <mxGeometry relative="1" as="geometry">
            <mxPoint x="-780" y="300" as="sourcePoint" />
          </mxGeometry>
        </mxCell>
        <mxCell id="m60h9jhjNlDXzHuw5Jvv-55" style="edgeStyle=orthogonalEdgeStyle;rounded=0;orthogonalLoop=1;jettySize=auto;html=1;exitX=0.5;exitY=1;exitDx=0;exitDy=0;" parent="1" source="m60h9jhjNlDXzHuw5Jvv-9" target="m60h9jhjNlDXzHuw5Jvv-9" edge="1">
          <mxGeometry relative="1" as="geometry" />
        </mxCell>
        <mxCell id="vQM92HokIzof02-3az71-1" value="&lt;font style=&quot;font-size: 14px&quot;&gt;21&lt;br&gt;&lt;/font&gt;" style="text;html=1;align=center;verticalAlign=middle;resizable=0;points=[];autosize=1;strokeColor=none;fillColor=none;fontSize=18;" vertex="1" parent="1">
          <mxGeometry x="-390" y="140" width="30" height="30" as="geometry" />
        </mxCell>
        <mxCell id="vQM92HokIzof02-3az71-2" value="&lt;font style=&quot;font-size: 14px&quot;&gt;18&lt;br&gt;&lt;/font&gt;" style="text;html=1;align=center;verticalAlign=middle;resizable=0;points=[];autosize=1;strokeColor=none;fillColor=none;fontSize=18;" vertex="1" parent="1">
          <mxGeometry x="-557" y="275" width="30" height="30" as="geometry" />
        </mxCell>
        <mxCell id="vQM92HokIzof02-3az71-3" value="&lt;font style=&quot;font-size: 14px&quot;&gt;22&lt;br&gt;&lt;/font&gt;" style="text;html=1;align=center;verticalAlign=middle;resizable=0;points=[];autosize=1;strokeColor=none;fillColor=none;fontSize=18;" vertex="1" parent="1">
          <mxGeometry x="-305" y="226" width="30" height="30" as="geometry" />
        </mxCell>
        <mxCell id="vQM92HokIzof02-3az71-4" value="&lt;font style=&quot;font-size: 14px&quot;&gt;23&lt;br&gt;&lt;/font&gt;" style="text;html=1;align=center;verticalAlign=middle;resizable=0;points=[];autosize=1;strokeColor=none;fillColor=none;fontSize=18;" vertex="1" parent="1">
          <mxGeometry x="-305" y="345" width="30" height="30" as="geometry" />
        </mxCell>
        <mxCell id="vQM92HokIzof02-3az71-5" value="&lt;font style=&quot;font-size: 14px&quot;&gt;19&lt;br&gt;&lt;/font&gt;" style="text;html=1;align=center;verticalAlign=middle;resizable=0;points=[];autosize=1;strokeColor=none;fillColor=none;fontSize=18;" vertex="1" parent="1">
          <mxGeometry x="-167" y="275" width="30" height="30" as="geometry" />
        </mxCell>
        <mxCell id="vQM92HokIzof02-3az71-6" value="&lt;font style=&quot;font-size: 14px&quot;&gt;20&lt;br&gt;&lt;/font&gt;" style="text;html=1;align=center;verticalAlign=middle;resizable=0;points=[];autosize=1;strokeColor=none;fillColor=none;fontSize=18;" vertex="1" parent="1">
          <mxGeometry x="-165" y="296" width="30" height="30" as="geometry" />
        </mxCell>
        <mxCell id="vQM92HokIzof02-3az71-7" value="&lt;font style=&quot;font-size: 14px&quot;&gt;25&lt;br&gt;&lt;/font&gt;" style="text;html=1;align=center;verticalAlign=middle;resizable=0;points=[];autosize=1;strokeColor=none;fillColor=none;fontSize=18;" vertex="1" parent="1">
          <mxGeometry x="-721" y="160" width="30" height="30" as="geometry" />
        </mxCell>
        <mxCell id="vQM92HokIzof02-3az71-8" value="&lt;font style=&quot;font-size: 14px&quot;&gt;24&lt;br&gt;&lt;/font&gt;" style="text;html=1;align=center;verticalAlign=middle;resizable=0;points=[];autosize=1;strokeColor=none;fillColor=none;fontSize=18;" vertex="1" parent="1">
          <mxGeometry x="-721" y="190" width="30" height="30" as="geometry" />
        </mxCell>
      </root>
    </mxGraphModel>
  </diagram>
</mxfile>
